<?xml version="1.0" encoding="UTF-8"?>
<!DOCTYPE svg PUBLIC "-//W3C//DTD SVG 1.1//EN" >
<svg version="1.2" width="180.27mm" height="180.27mm" viewBox="1487 5837 18027 18027" preserveAspectRatio="xMidYMid" fill-rule="evenodd" stroke-width="28.222" stroke-linejoin="round" xmlns="http://www.w3.org/2000/svg" xml:space="preserve">
 <defs class="EmbeddedBulletChars">
  <g id="bullet-char-template-57356" transform="scale(0.00048828125,-0.00048828125)">
   <path d="M 580,1141 L 1163,571 580,0 -4,571 580,1141 Z"/>
  </g>
  <g id="bullet-char-template-57354" transform="scale(0.00048828125,-0.00048828125)">
   <path d="M 8,1128 L 1137,1128 1137,0 8,0 8,1128 Z"/>
  </g>
  <g id="bullet-char-template-10146" transform="scale(0.00048828125,-0.00048828125)">
   <path d="M 174,0 L 602,739 174,1481 1456,739 174,0 Z M 1358,739 L 309,1346 659,739 1358,739 Z"/>
  </g>
  <g id="bullet-char-template-10132" transform="scale(0.00048828125,-0.00048828125)">
   <path d="M 2015,739 L 1276,0 717,0 1260,543 174,543 174,936 1260,936 717,1481 1274,1481 2015,739 Z"/>
  </g>
  <g id="bullet-char-template-10007" transform="scale(0.00048828125,-0.00048828125)">
   <path d="M 0,-2 C -7,14 -16,27 -25,37 L 356,567 C 262,823 215,952 215,954 215,979 228,992 255,992 264,992 276,990 289,987 310,991 331,999 354,1012 L 381,999 492,748 772,1049 836,1024 860,1049 C 881,1039 901,1025 922,1006 886,937 835,863 770,784 769,783 710,716 594,584 L 774,223 C 774,196 753,168 711,139 L 727,119 C 717,90 699,76 672,76 641,76 570,178 457,381 L 164,-76 C 142,-110 111,-127 72,-127 30,-127 9,-110 8,-76 1,-67 -2,-52 -2,-32 -2,-23 -1,-13 0,-2 Z"/>
  </g>
  <g id="bullet-char-template-10004" transform="scale(0.00048828125,-0.00048828125)">
   <path d="M 285,-33 C 182,-33 111,30 74,156 52,228 41,333 41,471 41,549 55,616 82,672 116,743 169,778 240,778 293,778 328,747 346,684 L 369,508 C 377,444 397,411 428,410 L 1163,1116 C 1174,1127 1196,1133 1229,1133 1271,1133 1292,1118 1292,1087 L 1292,965 C 1292,929 1282,901 1262,881 L 442,47 C 390,-6 338,-33 285,-33 Z"/>
  </g>
  <g id="bullet-char-template-9679" transform="scale(0.00048828125,-0.00048828125)">
   <path d="M 813,0 C 632,0 489,54 383,161 276,268 223,411 223,592 223,773 276,916 383,1023 489,1130 632,1184 813,1184 992,1184 1136,1130 1245,1023 1353,916 1407,772 1407,592 1407,412 1353,268 1245,161 1136,54 992,0 813,0 Z"/>
  </g>
  <g id="bullet-char-template-8226" transform="scale(0.00048828125,-0.00048828125)">
   <path d="M 346,457 C 273,457 209,483 155,535 101,586 74,649 74,723 74,796 101,859 155,911 209,963 273,989 346,989 419,989 480,963 531,910 582,859 608,796 608,723 608,648 583,586 532,535 482,483 420,457 346,457 Z"/>
  </g>
  <g id="bullet-char-template-8211" transform="scale(0.00048828125,-0.00048828125)">
   <path d="M -4,459 L 1135,459 1135,606 -4,606 -4,459 Z"/>
  </g>
  <g id="bullet-char-template-61548" transform="scale(0.00048828125,-0.00048828125)">
   <path d="M 173,740 C 173,903 231,1043 346,1159 462,1274 601,1332 765,1332 928,1332 1067,1274 1183,1159 1299,1043 1357,903 1357,740 1357,577 1299,437 1183,322 1067,206 928,148 765,148 601,148 462,206 346,322 231,437 173,577 173,740 Z"/>
  </g>
 </defs>
 <g class="Page">
  <g class="Group">
   <g class="com.sun.star.drawing.PolyPolygonShape">
    <g id="id3">
     <rect class="BoundingBox" stroke="none" fill="none" x="1501" y="5851" width="17999" height="17999"/>
     <path fill="rgb(114,159,207)" stroke="none" d="M 1502,5852 L 19498,5852 19498,23848 1502,23848 1502,5852 Z"/>
    </g>
   </g>
   <g class="com.sun.star.drawing.PolyPolygonShape">
    <g id="id4">
     <rect class="BoundingBox" stroke="none" fill="none" x="1487" y="5837" width="18027" height="18027"/>
     <path fill="none" stroke="rgb(52,101,164)" stroke-width="28" stroke-linejoin="round" d="M 1502,5852 L 19498,5852 19498,23848 1502,23848 1502,5852 Z"/>
    </g>
   </g>
   <g class="com.sun.star.drawing.CustomShape">
    <g id="id5">
     <rect class="BoundingBox" stroke="none" fill="none" x="7190" y="11022" width="7417" height="7417"/>
     <path fill="rgb(255,213,80)" stroke="none" d="M 7350,14217 L 8717,14937 8865,13913 7350,14217 Z"/>
     <path fill="none" stroke="rgb(0,0,0)" stroke-width="318" stroke-linejoin="round" d="M 7350,14217 L 8717,14937 8865,13913 7350,14217 Z"/>
     <path fill="rgb(255,213,80)" stroke="none" d="M 8027,16876 L 9502,16419 8882,15590 8027,16876 Z"/>
     <path fill="none" stroke="rgb(0,0,0)" stroke-width="318" stroke-linejoin="round" d="M 8027,16876 L 9502,16419 8882,15590 8027,16876 Z"/>
     <path fill="rgb(255,213,80)" stroke="none" d="M 10385,18278 L 11105,16910 10081,16762 10385,18278 Z"/>
     <path fill="none" stroke="rgb(0,0,0)" stroke-width="318" stroke-linejoin="round" d="M 10385,18278 L 11105,16910 10081,16762 10385,18278 Z"/>
     <path fill="rgb(255,213,80)" stroke="none" d="M 13044,17600 L 12587,16125 11758,16745 13044,17600 Z"/>
     <path fill="none" stroke="rgb(0,0,0)" stroke-width="318" stroke-linejoin="round" d="M 13044,17600 L 12587,16125 11758,16745 13044,17600 Z"/>
     <path fill="rgb(255,213,80)" stroke="none" d="M 14446,15243 L 13078,14522 12930,15546 14446,15243 Z"/>
     <path fill="none" stroke="rgb(0,0,0)" stroke-width="318" stroke-linejoin="round" d="M 14446,15243 L 13078,14522 12930,15546 14446,15243 Z"/>
     <path fill="rgb(255,213,80)" stroke="none" d="M 13768,12583 L 12293,13040 12913,13869 13768,12583 Z"/>
     <path fill="none" stroke="rgb(0,0,0)" stroke-width="318" stroke-linejoin="round" d="M 13768,12583 L 12293,13040 12913,13869 13768,12583 Z"/>
     <path fill="rgb(255,213,80)" stroke="none" d="M 11411,11182 L 10690,12549 11714,12697 11411,11182 Z"/>
     <path fill="none" stroke="rgb(0,0,0)" stroke-width="318" stroke-linejoin="round" d="M 11411,11182 L 10690,12549 11714,12697 11411,11182 Z"/>
     <path fill="rgb(255,213,80)" stroke="none" d="M 8751,11859 L 9208,13334 10037,12714 8751,11859 Z"/>
     <path fill="none" stroke="rgb(0,0,0)" stroke-width="318" stroke-linejoin="round" d="M 8751,11859 L 9208,13334 10037,12714 8751,11859 Z"/>
     <path fill="rgb(255,213,80)" stroke="none" d="M 12672,14986 C 12627,15298 12501,15592 12306,15839 12112,16086 11855,16278 11563,16395 11271,16511 10953,16549 10642,16504 10330,16459 10036,16333 9789,16138 9542,15944 9350,15687 9233,15395 9117,15103 9079,14785 9124,14474 9169,14162 9295,13868 9490,13621 9684,13374 9941,13182 10233,13065 10525,12949 10843,12911 11154,12956 11466,13001 11760,13127 12007,13322 12254,13516 12446,13773 12563,14065 12679,14357 12717,14675 12672,14986 L 12672,14986 Z"/>
     <path fill="none" stroke="rgb(0,0,0)" stroke-width="318" stroke-linejoin="round" d="M 12672,14986 C 12627,15298 12501,15592 12306,15839 12112,16086 11855,16278 11563,16395 11271,16511 10953,16549 10642,16504 10330,16459 10036,16333 9789,16138 9542,15944 9350,15687 9233,15395 9117,15103 9079,14785 9124,14474 9169,14162 9295,13868 9490,13621 9684,13374 9941,13182 10233,13065 10525,12949 10843,12911 11154,12956 11466,13001 11760,13127 12007,13322 12254,13516 12446,13773 12563,14065 12679,14357 12717,14675 12672,14986 Z"/>
    </g>
   </g>
   <g class="Group">
    <g class="com.sun.star.drawing.CustomShape">
     <g id="id6">
      <rect class="BoundingBox" stroke="none" fill="none" x="6672" y="16298" width="6503" height="1968"/>
      <path fill="rgb(251,251,251)" stroke="none" d="M 7654,16299 L 7655,16299 C 7482,16299 7313,16344 7163,16431 7014,16517 6890,16641 6804,16791 6717,16940 6672,17109 6672,17282 L 6672,17281 6672,17282 C 6672,17455 6717,17624 6804,17774 6890,17923 7014,18047 7164,18133 7313,18220 7482,18265 7655,18265 L 12190,18264 12190,18265 C 12363,18265 12532,18220 12682,18133 12831,18047 12955,17923 13041,17774 13128,17624 13173,17455 13173,17282 L 13173,17281 13173,17282 13173,17282 C 13173,17109 13128,16940 13041,16791 12955,16641 12831,16517 12682,16431 12532,16344 12363,16299 12190,16299 L 7654,16299 Z"/>
     </g>
    </g>
    <g class="com.sun.star.drawing.CustomShape">
     <g id="id7">
      <rect class="BoundingBox" stroke="none" fill="none" x="7129" y="15621" width="2680" height="1967"/>
      <path fill="rgb(251,251,251)" stroke="none" d="M 9808,16604 C 9808,16777 9746,16946 9629,17096 9511,17245 9342,17369 9138,17455 8935,17542 8704,17587 8469,17587 8233,17587 8002,17542 7799,17455 7595,17369 7426,17245 7308,17096 7191,16946 7129,16777 7129,16604 7129,16431 7191,16262 7308,16113 7426,15963 7595,15839 7799,15753 8002,15666 8233,15621 8468,15621 8704,15621 8935,15666 9138,15753 9342,15839 9511,15963 9629,16113 9746,16262 9808,16431 9808,16604 L 9808,16604 Z"/>
     </g>
    </g>
    <g class="com.sun.star.drawing.CustomShape">
     <g id="id8">
      <rect class="BoundingBox" stroke="none" fill="none" x="10343" y="15606" width="2679" height="1968"/>
      <path fill="rgb(251,251,251)" stroke="none" d="M 13020,16590 C 13020,16763 12958,16932 12841,17082 12723,17231 12554,17355 12351,17441 12147,17528 11916,17573 11682,17573 11447,17573 11216,17528 11012,17441 10809,17355 10640,17231 10522,17082 10405,16932 10343,16763 10343,16590 10343,16417 10405,16248 10522,16098 10640,15949 10809,15825 11012,15739 11216,15652 11447,15607 11681,15607 11916,15607 12147,15652 12351,15739 12554,15825 12723,15949 12841,16098 12958,16248 13020,16417 13020,16590 L 13020,16590 Z"/>
     </g>
    </g>
    <g class="com.sun.star.drawing.CustomShape">
     <g id="id9">
      <rect class="BoundingBox" stroke="none" fill="none" x="8394" y="14693" width="2679" height="1967"/>
      <path fill="rgb(251,251,251)" stroke="none" d="M 11071,15676 C 11071,15849 11009,16018 10892,16167 10774,16317 10605,16441 10402,16527 10198,16614 9967,16659 9733,16659 9498,16659 9267,16614 9063,16527 8860,16441 8691,16317 8573,16167 8456,16018 8394,15849 8394,15676 8394,15503 8456,15334 8573,15184 8691,15035 8860,14911 9063,14825 9267,14738 9498,14693 9732,14693 9967,14693 10198,14738 10402,14825 10605,14911 10774,15035 10892,15184 11009,15334 11071,15503 11071,15676 L 11071,15676 Z"/>
     </g>
    </g>
   </g>
   <g class="Group">
    <g class="com.sun.star.drawing.OpenBezierShape">
     <g id="id10">
      <rect class="BoundingBox" stroke="none" fill="none" x="8208" y="14448" width="2806" height="1445"/>
      <path fill="none" stroke="rgb(0,0,0)" stroke-width="353" stroke-linejoin="round" stroke-linecap="round" d="M 8385,15715 C 8385,15699 8385,15683 8386,15668 8399,15473 8469,15285 8589,15122 8709,14960 8876,14832 9072,14744 9269,14656 9488,14616 9707,14627 9927,14638 10139,14699 10323,14806 10506,14911 10653,15057 10752,15230 10786,15290 10814,15353 10836,15418"/>
     </g>
    </g>
    <g class="com.sun.star.drawing.LineShape">
     <g id="id11">
      <rect class="BoundingBox" stroke="none" fill="none" x="7541" y="17995" width="1454" height="361"/>
      <path fill="none" stroke="rgb(0,0,0)" stroke-width="353" stroke-linejoin="round" stroke-linecap="round" d="M 8817,18172 L 7718,18178"/>
     </g>
    </g>
    <g class="com.sun.star.drawing.OpenBezierShape">
     <g id="id12">
      <rect class="BoundingBox" stroke="none" fill="none" x="7009" y="15529" width="1598" height="1245"/>
      <path fill="none" stroke="rgb(0,0,0)" stroke-width="353" stroke-linejoin="round" stroke-linecap="round" d="M 7186,16596 C 7206,16449 7257,16308 7336,16182 7431,16031 7563,15908 7719,15824 7874,15741 8048,15700 8223,15706 8293,15708 8362,15718 8429,15735"/>
     </g>
    </g>
    <g class="com.sun.star.drawing.OpenBezierShape">
     <g id="id13">
      <rect class="BoundingBox" stroke="none" fill="none" x="6536" y="16391" width="1379" height="1965"/>
      <path fill="none" stroke="rgb(0,0,0)" stroke-width="353" stroke-linejoin="round" stroke-linecap="round" d="M 7737,18178 C 7585,18162 7438,18124 7306,18066 7125,17988 6976,17875 6872,17739 6768,17603 6713,17449 6713,17292 6713,17134 6768,16980 6872,16844 6955,16736 7066,16642 7200,16568"/>
     </g>
    </g>
   </g>
   <g class="Group">
    <g class="com.sun.star.drawing.CustomShape">
     <g id="id14">
      <rect class="BoundingBox" stroke="none" fill="none" x="9654" y="16897" width="4476" height="1658"/>
      <path fill="rgb(220,220,219)" stroke="none" d="M 10482,16898 L 10482,16898 C 10337,16898 10194,16936 10068,17009 9942,17082 9838,17186 9765,17312 9692,17438 9654,17581 9654,17726 L 9654,17725 9654,17726 C 9654,17871 9692,18014 9765,18140 9838,18266 9942,18370 10068,18443 10194,18516 10337,18554 10482,18554 L 13301,18553 13301,18554 C 13446,18554 13589,18516 13715,18443 13841,18370 13945,18266 14018,18140 14091,18014 14129,17871 14129,17726 L 14129,17725 14129,17726 14129,17726 C 14129,17581 14091,17438 14018,17312 13945,17186 13841,17082 13715,17009 13589,16936 13446,16898 13301,16898 L 10482,16898 Z"/>
     </g>
    </g>
    <g class="com.sun.star.drawing.CustomShape">
     <g id="id15">
      <rect class="BoundingBox" stroke="none" fill="none" x="9915" y="16501" width="1845" height="1658"/>
      <path fill="rgb(220,220,219)" stroke="none" d="M 11759,17330 C 11759,17475 11716,17618 11635,17744 11555,17870 11438,17974 11298,18047 11158,18120 10999,18158 10837,18158 10675,18158 10516,18120 10376,18047 10236,17974 10119,17870 10039,17744 9958,17618 9915,17475 9915,17330 9915,17184 9958,17041 10039,16915 10119,16789 10236,16685 10376,16612 10516,16539 10675,16501 10837,16501 10999,16501 11158,16539 11298,16612 11438,16685 11555,16789 11635,16915 11716,17041 11759,17184 11759,17330 L 11759,17330 Z"/>
     </g>
    </g>
    <g class="com.sun.star.drawing.CustomShape">
     <g id="id16">
      <rect class="BoundingBox" stroke="none" fill="none" x="12075" y="16170" width="1845" height="1658"/>
      <path fill="rgb(220,220,219)" stroke="none" d="M 13919,16999 C 13919,17144 13876,17287 13795,17413 13715,17539 13598,17643 13458,17716 13318,17789 13159,17827 12997,17827 12835,17827 12676,17789 12536,17716 12396,17643 12279,17539 12199,17413 12118,17287 12075,17144 12075,16999 12075,16853 12118,16710 12199,16584 12279,16458 12396,16354 12536,16281 12676,16208 12835,16170 12997,16170 13159,16170 13318,16208 13458,16281 13598,16354 13715,16458 13795,16584 13876,16710 13919,16853 13919,16999 L 13919,16999 Z"/>
     </g>
    </g>
    <g class="com.sun.star.drawing.CustomShape">
     <g id="id17">
      <rect class="BoundingBox" stroke="none" fill="none" x="10969" y="15574" width="1846" height="1658"/>
      <path fill="rgb(220,220,219)" stroke="none" d="M 12814,16403 C 12814,16548 12771,16691 12690,16817 12609,16943 12493,17047 12353,17120 12213,17193 12053,17231 11892,17231 11730,17231 11570,17193 11430,17120 11290,17047 11174,16943 11093,16817 11012,16691 10969,16548 10969,16403 10969,16257 11012,16114 11093,15988 11174,15862 11290,15758 11430,15685 11570,15612 11730,15574 11892,15574 12053,15574 12213,15612 12353,15685 12493,15758 12609,15862 12690,15988 12771,16114 12814,16257 12814,16403 L 12814,16403 Z"/>
     </g>
    </g>
   </g>
   <g class="Group">
    <g class="com.sun.star.drawing.OpenBezierShape">
     <g id="id18">
      <rect class="BoundingBox" stroke="none" fill="none" x="10782" y="15383" width="2184" height="1276"/>
      <path fill="none" stroke="rgb(0,0,0)" stroke-width="318" stroke-linejoin="round" stroke-linecap="round" d="M 10941,16498 C 10941,16484 10942,16471 10943,16457 10952,16287 11005,16123 11096,15981 11188,15838 11314,15723 11464,15646 11613,15570 11779,15534 11945,15544 12112,15553 12273,15607 12413,15700 12553,15793 12666,15922 12741,16074 12767,16126 12789,16181 12805,16237"/>
     </g>
    </g>
    <g class="com.sun.star.drawing.OpenBezierShape">
     <g id="id19">
      <rect class="BoundingBox" stroke="none" fill="none" x="12627" y="15995" width="1478" height="1461"/>
      <path fill="none" stroke="rgb(0,0,0)" stroke-width="318" stroke-linejoin="round" stroke-linecap="round" d="M 12786,16272 C 12796,16266 12805,16261 12815,16255 12929,16189 13059,16154 13191,16154 13323,16154 13453,16189 13568,16255 13682,16321 13777,16417 13843,16531 13909,16646 13944,16776 13944,16909 13944,17041 13909,17171 13843,17286 13841,17289 13840,17292 13838,17295"/>
     </g>
    </g>
    <g class="com.sun.star.drawing.OpenBezierShape">
     <g id="id20">
      <rect class="BoundingBox" stroke="none" fill="none" x="12975" y="17096" width="1295" height="1712"/>
      <path fill="none" stroke="rgb(0,0,0)" stroke-width="318" stroke-linejoin="round" stroke-linecap="round" d="M 13839,17255 C 13891,17301 13937,17353 13976,17408 14063,17534 14109,17676 14109,17821 14109,17966 14063,18108 13976,18234 13888,18360 13763,18464 13612,18536 13466,18606 13302,18644 13134,18647"/>
     </g>
    </g>
    <g class="com.sun.star.drawing.LineShape">
     <g id="id21">
      <rect class="BoundingBox" stroke="none" fill="none" x="10279" y="18489" width="3063" height="320"/>
      <path fill="none" stroke="rgb(0,0,0)" stroke-width="318" stroke-linejoin="round" stroke-linecap="round" d="M 13181,18648 L 10439,18648"/>
     </g>
    </g>
    <g class="com.sun.star.drawing.OpenBezierShape">
     <g id="id22">
      <rect class="BoundingBox" stroke="none" fill="none" x="9874" y="16329" width="1261" height="1099"/>
      <path fill="none" stroke="rgb(0,0,0)" stroke-width="318" stroke-linejoin="round" stroke-linecap="round" d="M 10034,17267 C 10050,17139 10088,17015 10148,16906 10220,16774 10320,16666 10439,16593 10555,16520 10685,16484 10817,16489 10870,16492 10923,16500 10974,16515"/>
     </g>
    </g>
    <g class="com.sun.star.drawing.OpenBezierShape">
     <g id="id23">
      <rect class="BoundingBox" stroke="none" fill="none" x="9516" y="17084" width="1097" height="1725"/>
      <path fill="none" stroke="rgb(0,0,0)" stroke-width="318" stroke-linejoin="round" stroke-linecap="round" d="M 10453,18648 C 10338,18634 10226,18601 10126,18550 9989,18482 9875,18383 9796,18265 9718,18146 9676,18011 9676,17874 9676,17737 9718,17602 9796,17484 9859,17389 9944,17307 10046,17243"/>
     </g>
    </g>
   </g>
  </g>
 </g>
</svg>