<?xml version="1.0" encoding="UTF-8"?>
<!DOCTYPE svg PUBLIC "-//W3C//DTD SVG 1.1//EN" >
<svg version="1.2" width="180.25mm" height="180.25mm" viewBox="1488 5838 18025 18025" preserveAspectRatio="xMidYMid" fill-rule="evenodd" stroke-width="28.222" stroke-linejoin="round" xmlns="http://www.w3.org/2000/svg" xml:space="preserve">
 <defs class="EmbeddedBulletChars">
  <g id="bullet-char-template-57356" transform="scale(0.00048828125,-0.00048828125)">
   <path d="M 580,1141 L 1163,571 580,0 -4,571 580,1141 Z"/>
  </g>
  <g id="bullet-char-template-57354" transform="scale(0.00048828125,-0.00048828125)">
   <path d="M 8,1128 L 1137,1128 1137,0 8,0 8,1128 Z"/>
  </g>
  <g id="bullet-char-template-10146" transform="scale(0.00048828125,-0.00048828125)">
   <path d="M 174,0 L 602,739 174,1481 1456,739 174,0 Z M 1358,739 L 309,1346 659,739 1358,739 Z"/>
  </g>
  <g id="bullet-char-template-10132" transform="scale(0.00048828125,-0.00048828125)">
   <path d="M 2015,739 L 1276,0 717,0 1260,543 174,543 174,936 1260,936 717,1481 1274,1481 2015,739 Z"/>
  </g>
  <g id="bullet-char-template-10007" transform="scale(0.00048828125,-0.00048828125)">
   <path d="M 0,-2 C -7,14 -16,27 -25,37 L 356,567 C 262,823 215,952 215,954 215,979 228,992 255,992 264,992 276,990 289,987 310,991 331,999 354,1012 L 381,999 492,748 772,1049 836,1024 860,1049 C 881,1039 901,1025 922,1006 886,937 835,863 770,784 769,783 710,716 594,584 L 774,223 C 774,196 753,168 711,139 L 727,119 C 717,90 699,76 672,76 641,76 570,178 457,381 L 164,-76 C 142,-110 111,-127 72,-127 30,-127 9,-110 8,-76 1,-67 -2,-52 -2,-32 -2,-23 -1,-13 0,-2 Z"/>
  </g>
  <g id="bullet-char-template-10004" transform="scale(0.00048828125,-0.00048828125)">
   <path d="M 285,-33 C 182,-33 111,30 74,156 52,228 41,333 41,471 41,549 55,616 82,672 116,743 169,778 240,778 293,778 328,747 346,684 L 369,508 C 377,444 397,411 428,410 L 1163,1116 C 1174,1127 1196,1133 1229,1133 1271,1133 1292,1118 1292,1087 L 1292,965 C 1292,929 1282,901 1262,881 L 442,47 C 390,-6 338,-33 285,-33 Z"/>
  </g>
  <g id="bullet-char-template-9679" transform="scale(0.00048828125,-0.00048828125)">
   <path d="M 813,0 C 632,0 489,54 383,161 276,268 223,411 223,592 223,773 276,916 383,1023 489,1130 632,1184 813,1184 992,1184 1136,1130 1245,1023 1353,916 1407,772 1407,592 1407,412 1353,268 1245,161 1136,54 992,0 813,0 Z"/>
  </g>
  <g id="bullet-char-template-8226" transform="scale(0.00048828125,-0.00048828125)">
   <path d="M 346,457 C 273,457 209,483 155,535 101,586 74,649 74,723 74,796 101,859 155,911 209,963 273,989 346,989 419,989 480,963 531,910 582,859 608,796 608,723 608,648 583,586 532,535 482,483 420,457 346,457 Z"/>
  </g>
  <g id="bullet-char-template-8211" transform="scale(0.00048828125,-0.00048828125)">
   <path d="M -4,459 L 1135,459 1135,606 -4,606 -4,459 Z"/>
  </g>
  <g id="bullet-char-template-61548" transform="scale(0.00048828125,-0.00048828125)">
   <path d="M 173,740 C 173,903 231,1043 346,1159 462,1274 601,1332 765,1332 928,1332 1067,1274 1183,1159 1299,1043 1357,903 1357,740 1357,577 1299,437 1183,322 1067,206 928,148 765,148 601,148 462,206 346,322 231,437 173,577 173,740 Z"/>
  </g>
 </defs>
 <g class="Page">
  <g class="com.sun.star.drawing.PolyPolygonShape">
   <g id="id3">
    <rect class="BoundingBox" stroke="none" fill="none" x="1502" y="5852" width="17997" height="17997"/>
    <path fill="rgb(114,159,207)" stroke="none" d="M 1502,5852 L 19498,5852 19498,23848 1502,23848 1502,5852 Z"/>
   </g>
  </g>
  <g class="com.sun.star.drawing.PolyPolygonShape">
   <g id="id4">
    <rect class="BoundingBox" stroke="none" fill="none" x="1488" y="5838" width="18025" height="18025"/>
    <path fill="none" stroke="rgb(52,101,164)" stroke-width="28" stroke-linejoin="round" d="M 1502,5852 L 19498,5852 19498,23848 1502,23848 1502,5852 Z"/>
   </g>
  </g>
  <g class="com.sun.star.drawing.CustomShape">
   <g id="id5">
    <rect class="BoundingBox" stroke="none" fill="none" x="7243" y="11075" width="7311" height="7311"/>
    <path fill="rgb(255,213,80)" stroke="none" d="M 7350,14217 L 8717,14937 8865,13913 7350,14217 Z"/>
    <path fill="none" stroke="rgb(0,0,0)" stroke-width="212" stroke-linejoin="round" d="M 7350,14217 L 8717,14937 8865,13913 7350,14217 Z"/>
    <path fill="rgb(255,213,80)" stroke="none" d="M 8027,16876 L 9502,16419 8882,15590 8027,16876 Z"/>
    <path fill="none" stroke="rgb(0,0,0)" stroke-width="212" stroke-linejoin="round" d="M 8027,16876 L 9502,16419 8882,15590 8027,16876 Z"/>
    <path fill="rgb(255,213,80)" stroke="none" d="M 10385,18278 L 11105,16910 10081,16762 10385,18278 Z"/>
    <path fill="none" stroke="rgb(0,0,0)" stroke-width="212" stroke-linejoin="round" d="M 10385,18278 L 11105,16910 10081,16762 10385,18278 Z"/>
    <path fill="rgb(255,213,80)" stroke="none" d="M 13044,17600 L 12587,16125 11758,16745 13044,17600 Z"/>
    <path fill="none" stroke="rgb(0,0,0)" stroke-width="212" stroke-linejoin="round" d="M 13044,17600 L 12587,16125 11758,16745 13044,17600 Z"/>
    <path fill="rgb(255,213,80)" stroke="none" d="M 14446,15243 L 13078,14522 12930,15546 14446,15243 Z"/>
    <path fill="none" stroke="rgb(0,0,0)" stroke-width="212" stroke-linejoin="round" d="M 14446,15243 L 13078,14522 12930,15546 14446,15243 Z"/>
    <path fill="rgb(255,213,80)" stroke="none" d="M 13768,12583 L 12293,13040 12913,13869 13768,12583 Z"/>
    <path fill="none" stroke="rgb(0,0,0)" stroke-width="212" stroke-linejoin="round" d="M 13768,12583 L 12293,13040 12913,13869 13768,12583 Z"/>
    <path fill="rgb(255,213,80)" stroke="none" d="M 11411,11182 L 10690,12549 11714,12697 11411,11182 Z"/>
    <path fill="none" stroke="rgb(0,0,0)" stroke-width="212" stroke-linejoin="round" d="M 11411,11182 L 10690,12549 11714,12697 11411,11182 Z"/>
    <path fill="rgb(255,213,80)" stroke="none" d="M 8751,11859 L 9208,13334 10037,12714 8751,11859 Z"/>
    <path fill="none" stroke="rgb(0,0,0)" stroke-width="212" stroke-linejoin="round" d="M 8751,11859 L 9208,13334 10037,12714 8751,11859 Z"/>
    <path fill="rgb(255,213,80)" stroke="none" d="M 12672,14986 C 12627,15298 12501,15592 12306,15839 12112,16086 11855,16278 11563,16395 11271,16511 10953,16549 10642,16504 10330,16459 10036,16333 9789,16138 9542,15944 9350,15687 9233,15395 9117,15103 9079,14785 9124,14474 9169,14162 9295,13868 9490,13621 9684,13374 9941,13182 10233,13065 10525,12949 10843,12911 11154,12956 11466,13001 11760,13127 12007,13322 12254,13516 12446,13773 12563,14065 12679,14357 12717,14675 12672,14986 L 12672,14986 Z"/>
    <path fill="none" stroke="rgb(0,0,0)" stroke-width="212" stroke-linejoin="round" d="M 12672,14986 C 12627,15298 12501,15592 12306,15839 12112,16086 11855,16278 11563,16395 11271,16511 10953,16549 10642,16504 10330,16459 10036,16333 9789,16138 9542,15944 9350,15687 9233,15395 9117,15103 9079,14785 9124,14474 9169,14162 9295,13868 9490,13621 9684,13374 9941,13182 10233,13065 10525,12949 10843,12911 11154,12956 11466,13001 11760,13127 12007,13322 12254,13516 12446,13773 12563,14065 12679,14357 12717,14675 12672,14986 L 12672,14986 Z"/>
   </g>
  </g>
  <g class="com.sun.star.drawing.CustomShape">
   <g id="id6">
    <rect class="BoundingBox" stroke="none" fill="none" x="6712" y="16501" width="6461" height="1658"/>
    <path fill="rgb(251,251,251)" stroke="none" d="M 7540,16501 L 7541,16501 C 7395,16501 7252,16539 7126,16612 7000,16685 6896,16789 6823,16915 6750,17041 6712,17184 6712,17330 L 6712,17329 6712,17330 C 6712,17475 6750,17618 6823,17744 6896,17870 7000,17974 7126,18047 7252,18120 7395,18158 7541,18158 L 12343,18158 12344,18158 C 12489,18158 12632,18120 12758,18047 12884,17974 12988,17870 13061,17744 13134,17618 13172,17475 13172,17330 L 13171,17329 13172,17330 13172,17330 C 13172,17184 13134,17041 13061,16915 12988,16789 12884,16685 12758,16612 12632,16539 12489,16501 12344,16501 L 7540,16501 Z"/>
   </g>
  </g>
  <g class="com.sun.star.drawing.CustomShape">
   <g id="id7">
    <rect class="BoundingBox" stroke="none" fill="none" x="7167" y="15602" width="2680" height="1967"/>
    <path fill="rgb(251,251,251)" stroke="none" d="M 9846,16585 C 9846,16758 9784,16927 9667,17077 9549,17226 9380,17350 9176,17436 8973,17523 8742,17568 8507,17568 8271,17568 8040,17523 7837,17436 7633,17350 7464,17226 7346,17077 7229,16927 7167,16758 7167,16585 7167,16412 7229,16243 7346,16094 7464,15944 7633,15820 7837,15734 8040,15647 8271,15602 8506,15602 8742,15602 8973,15647 9176,15734 9380,15820 9549,15944 9667,16094 9784,16243 9846,16412 9846,16585 L 9846,16585 Z"/>
   </g>
  </g>
  <g class="com.sun.star.drawing.CustomShape">
   <g id="id8">
    <rect class="BoundingBox" stroke="none" fill="none" x="10343" y="15606" width="2679" height="1968"/>
    <path fill="rgb(251,251,251)" stroke="none" d="M 13020,16590 C 13020,16763 12958,16932 12841,17082 12723,17231 12554,17355 12351,17441 12147,17528 11916,17573 11682,17573 11447,17573 11216,17528 11012,17441 10809,17355 10640,17231 10522,17082 10405,16932 10343,16763 10343,16590 10343,16417 10405,16248 10522,16098 10640,15949 10809,15825 11012,15739 11216,15652 11447,15607 11681,15607 11916,15607 12147,15652 12351,15739 12554,15825 12723,15949 12841,16098 12958,16248 13020,16417 13020,16590 L 13020,16590 Z"/>
   </g>
  </g>
  <g class="com.sun.star.drawing.CustomShape">
   <g id="id9">
    <rect class="BoundingBox" stroke="none" fill="none" x="8393" y="14692" width="2577" height="1968"/>
    <path fill="rgb(251,251,251)" stroke="none" d="M 10969,15676 C 10969,15849 10909,16018 10796,16167 10683,16317 10521,16441 10325,16527 10129,16614 9907,16659 9681,16659 9455,16659 9233,16614 9037,16527 8841,16441 8679,16317 8566,16167 8453,16018 8393,15849 8393,15676 8393,15503 8453,15334 8566,15184 8679,15035 8841,14911 9037,14825 9233,14738 9455,14693 9681,14693 9907,14693 10129,14738 10325,14825 10521,14911 10683,15035 10796,15184 10909,15334 10969,15503 10969,15676 L 10969,15676 Z"/>
   </g>
  </g>
  <g class="Group">
   <g class="com.sun.star.drawing.OpenBezierShape">
    <g id="id10">
     <rect class="BoundingBox" stroke="none" fill="none" x="8279" y="14519" width="2665" height="1304"/>
     <path fill="none" stroke="rgb(0,0,0)" stroke-width="212" stroke-linejoin="round" stroke-linecap="round" d="M 8385,15716 C 8385,15700 8385,15684 8386,15669 8399,15474 8469,15286 8589,15123 8709,14961 8876,14832 9072,14744 9269,14656 9488,14616 9707,14627 9927,14638 10139,14699 10323,14806 10507,14912 10654,15058 10753,15231 10787,15291 10815,15354 10837,15419"/>
    </g>
   </g>
   <g class="com.sun.star.drawing.LineShape">
    <g id="id11">
     <rect class="BoundingBox" stroke="none" fill="none" x="7612" y="18066" width="1312" height="219"/>
     <path fill="none" stroke="rgb(0,0,0)" stroke-width="212" stroke-linejoin="round" stroke-linecap="round" d="M 8817,18172 L 7718,18178"/>
    </g>
   </g>
   <g class="com.sun.star.drawing.OpenBezierShape">
    <g id="id12">
     <rect class="BoundingBox" stroke="none" fill="none" x="7080" y="15599" width="1456" height="1105"/>
     <path fill="none" stroke="rgb(0,0,0)" stroke-width="212" stroke-linejoin="round" stroke-linecap="round" d="M 7186,16597 C 7206,16450 7257,16309 7336,16183 7431,16032 7563,15909 7719,15825 7874,15742 8048,15701 8223,15707 8293,15709 8362,15719 8429,15736"/>
    </g>
   </g>
   <g class="com.sun.star.drawing.OpenBezierShape">
    <g id="id13">
     <rect class="BoundingBox" stroke="none" fill="none" x="6607" y="16462" width="1237" height="1823"/>
     <path fill="none" stroke="rgb(0,0,0)" stroke-width="212" stroke-linejoin="round" stroke-linecap="round" d="M 7737,18178 C 7585,18162 7438,18124 7306,18066 7125,17988 6976,17875 6872,17739 6768,17603 6713,17449 6713,17292 6713,17134 6768,16980 6872,16844 6955,16736 7066,16642 7200,16568"/>
    </g>
   </g>
  </g>
  <g class="com.sun.star.drawing.CustomShape">
   <g id="id14">
    <rect class="BoundingBox" stroke="none" fill="none" x="9654" y="17122" width="4476" height="1433"/>
    <path fill="rgb(220,220,219)" stroke="none" d="M 10370,17122 L 10370,17122 C 10244,17122 10121,17155 10012,17218 9903,17281 9813,17371 9750,17480 9687,17589 9654,17712 9654,17838 L 9654,17838 9654,17838 C 9654,17964 9687,18087 9750,18196 9813,18305 9903,18395 10012,18458 10121,18521 10244,18554 10370,18554 L 13413,18554 13413,18554 C 13539,18554 13662,18521 13771,18458 13880,18395 13970,18305 14033,18196 14096,18087 14129,17964 14129,17838 L 14129,17838 14129,17838 14129,17838 C 14129,17712 14096,17589 14033,17480 13970,17371 13880,17281 13771,17218 13662,17155 13539,17122 13413,17122 L 10370,17122 Z"/>
   </g>
  </g>
  <g class="com.sun.star.drawing.CustomShape">
   <g id="id15">
    <rect class="BoundingBox" stroke="none" fill="none" x="9991" y="16482" width="1845" height="1658"/>
    <path fill="rgb(220,220,219)" stroke="none" d="M 11835,17311 C 11835,17456 11792,17599 11711,17725 11631,17851 11514,17955 11374,18028 11234,18101 11075,18139 10913,18139 10751,18139 10592,18101 10452,18028 10312,17955 10195,17851 10115,17725 10034,17599 9991,17456 9991,17311 9991,17165 10034,17022 10115,16896 10195,16770 10312,16666 10452,16593 10592,16520 10751,16482 10913,16482 11075,16482 11234,16520 11374,16593 11514,16666 11631,16770 11711,16896 11792,17022 11835,17165 11835,17311 L 11835,17311 Z"/>
   </g>
  </g>
  <g class="com.sun.star.drawing.CustomShape">
   <g id="id16">
    <rect class="BoundingBox" stroke="none" fill="none" x="12075" y="16170" width="1845" height="1658"/>
    <path fill="rgb(220,220,219)" stroke="none" d="M 13919,16999 C 13919,17144 13876,17287 13795,17413 13715,17539 13598,17643 13458,17716 13318,17789 13159,17827 12997,17827 12835,17827 12676,17789 12536,17716 12396,17643 12279,17539 12199,17413 12118,17287 12075,17144 12075,16999 12075,16853 12118,16710 12199,16584 12279,16458 12396,16354 12536,16281 12676,16208 12835,16170 12997,16170 13159,16170 13318,16208 13458,16281 13598,16354 13715,16458 13795,16584 13876,16710 13919,16853 13919,16999 L 13919,16999 Z"/>
   </g>
  </g>
  <g class="com.sun.star.drawing.CustomShape">
   <g id="id17">
    <rect class="BoundingBox" stroke="none" fill="none" x="10969" y="15574" width="1846" height="1658"/>
    <path fill="rgb(220,220,219)" stroke="none" d="M 12814,16403 C 12814,16548 12771,16691 12690,16817 12609,16943 12493,17047 12353,17120 12213,17193 12053,17231 11892,17231 11730,17231 11570,17193 11430,17120 11290,17047 11174,16943 11093,16817 11012,16691 10969,16548 10969,16403 10969,16257 11012,16114 11093,15988 11174,15862 11290,15758 11430,15685 11570,15612 11730,15574 11892,15574 12053,15574 12213,15612 12353,15685 12493,15758 12609,15862 12690,15988 12771,16114 12814,16257 12814,16403 L 12814,16403 Z"/>
   </g>
  </g>
  <g class="Group">
   <g class="com.sun.star.drawing.OpenBezierShape">
    <g id="id18">
     <rect class="BoundingBox" stroke="none" fill="none" x="10835" y="15437" width="2077" height="1169"/>
     <path fill="none" stroke="rgb(0,0,0)" stroke-width="212" stroke-linejoin="round" stroke-linecap="round" d="M 10941,16499 C 10941,16485 10942,16472 10943,16458 10952,16288 11005,16124 11096,15982 11188,15839 11314,15724 11464,15647 11613,15571 11779,15535 11945,15545 12112,15554 12273,15608 12413,15701 12553,15794 12666,15923 12741,16075 12767,16127 12789,16182 12805,16238"/>
    </g>
   </g>
   <g class="com.sun.star.drawing.OpenBezierShape">
    <g id="id19">
     <rect class="BoundingBox" stroke="none" fill="none" x="12680" y="16048" width="1371" height="1354"/>
     <path fill="none" stroke="rgb(0,0,0)" stroke-width="212" stroke-linejoin="round" stroke-linecap="round" d="M 12786,16272 C 12796,16266 12805,16261 12815,16255 12929,16189 13059,16154 13191,16154 13323,16154 13453,16189 13568,16255 13682,16321 13777,16417 13843,16531 13909,16646 13944,16776 13944,16909 13944,17041 13909,17171 13843,17286 13841,17289 13840,17292 13838,17295"/>
    </g>
   </g>
   <g class="com.sun.star.drawing.OpenBezierShape">
    <g id="id20">
     <rect class="BoundingBox" stroke="none" fill="none" x="13028" y="17149" width="1188" height="1605"/>
     <path fill="none" stroke="rgb(0,0,0)" stroke-width="212" stroke-linejoin="round" stroke-linecap="round" d="M 13839,17255 C 13891,17301 13937,17353 13976,17408 14063,17534 14109,17676 14109,17821 14109,17966 14063,18108 13976,18234 13888,18360 13763,18464 13612,18536 13466,18606 13302,18644 13134,18647"/>
    </g>
   </g>
   <g class="com.sun.star.drawing.LineShape">
    <g id="id21">
     <rect class="BoundingBox" stroke="none" fill="none" x="10333" y="18542" width="2956" height="213"/>
     <path fill="none" stroke="rgb(0,0,0)" stroke-width="212" stroke-linejoin="round" stroke-linecap="round" d="M 13182,18648 L 10439,18648"/>
    </g>
   </g>
   <g class="com.sun.star.drawing.OpenBezierShape">
    <g id="id22">
     <rect class="BoundingBox" stroke="none" fill="none" x="9928" y="16383" width="1154" height="992"/>
     <path fill="none" stroke="rgb(0,0,0)" stroke-width="212" stroke-linejoin="round" stroke-linecap="round" d="M 10034,17267 C 10050,17139 10088,17015 10148,16906 10220,16774 10320,16666 10439,16593 10556,16520 10686,16484 10818,16489 10871,16492 10924,16500 10975,16515"/>
    </g>
   </g>
   <g class="com.sun.star.drawing.OpenBezierShape">
    <g id="id23">
     <rect class="BoundingBox" stroke="none" fill="none" x="9570" y="17137" width="990" height="1619"/>
     <path fill="none" stroke="rgb(0,0,0)" stroke-width="212" stroke-linejoin="round" stroke-linecap="round" d="M 10453,18648 C 10338,18634 10226,18601 10126,18550 9989,18482 9875,18383 9796,18265 9718,18146 9676,18011 9676,17874 9676,17737 9718,17602 9796,17484 9859,17389 9944,17307 10046,17243"/>
    </g>
   </g>
  </g>
 </g>
</svg>