<?xml version="1.0" encoding="UTF-8"?>
<svg version="1.2" width="180.29mm" height="180.29mm" viewBox="-14 -14 18029 18029" preserveAspectRatio="xMidYMid" fill-rule="evenodd" stroke-width="28.222" stroke-linejoin="round" xmlns="http://www.w3.org/2000/svg"   xml:space="preserve">
 <defs class="EmbeddedBulletChars">
  <g id="bullet-char-template-57356" transform="scale(0.00048828125,-0.00048828125)">
   <path d="M 580,1141 L 1163,571 580,0 -4,571 580,1141 Z"/>
  </g>
  <g id="bullet-char-template-57354" transform="scale(0.00048828125,-0.00048828125)">
   <path d="M 8,1128 L 1137,1128 1137,0 8,0 8,1128 Z"/>
  </g>
  <g id="bullet-char-template-10146" transform="scale(0.00048828125,-0.00048828125)">
   <path d="M 174,0 L 602,739 174,1481 1456,739 174,0 Z M 1358,739 L 309,1346 659,739 1358,739 Z"/>
  </g>
  <g id="bullet-char-template-10132" transform="scale(0.00048828125,-0.00048828125)">
   <path d="M 2015,739 L 1276,0 717,0 1260,543 174,543 174,936 1260,936 717,1481 1274,1481 2015,739 Z"/>
  </g>
  <g id="bullet-char-template-10007" transform="scale(0.00048828125,-0.00048828125)">
   <path d="M 0,-2 C -7,14 -16,27 -25,37 L 356,567 C 262,823 215,952 215,954 215,979 228,992 255,992 264,992 276,990 289,987 310,991 331,999 354,1012 L 381,999 492,748 772,1049 836,1024 860,1049 C 881,1039 901,1025 922,1006 886,937 835,863 770,784 769,783 710,716 594,584 L 774,223 C 774,196 753,168 711,139 L 727,119 C 717,90 699,76 672,76 641,76 570,178 457,381 L 164,-76 C 142,-110 111,-127 72,-127 30,-127 9,-110 8,-76 1,-67 -2,-52 -2,-32 -2,-23 -1,-13 0,-2 Z"/>
  </g>
  <g id="bullet-char-template-10004" transform="scale(0.00048828125,-0.00048828125)">
   <path d="M 285,-33 C 182,-33 111,30 74,156 52,228 41,333 41,471 41,549 55,616 82,672 116,743 169,778 240,778 293,778 328,747 346,684 L 369,508 C 377,444 397,411 428,410 L 1163,1116 C 1174,1127 1196,1133 1229,1133 1271,1133 1292,1118 1292,1087 L 1292,965 C 1292,929 1282,901 1262,881 L 442,47 C 390,-6 338,-33 285,-33 Z"/>
  </g>
  <g id="bullet-char-template-9679" transform="scale(0.00048828125,-0.00048828125)">
   <path d="M 813,0 C 632,0 489,54 383,161 276,268 223,411 223,592 223,773 276,916 383,1023 489,1130 632,1184 813,1184 992,1184 1136,1130 1245,1023 1353,916 1407,772 1407,592 1407,412 1353,268 1245,161 1136,54 992,0 813,0 Z"/>
  </g>
  <g id="bullet-char-template-8226" transform="scale(0.00048828125,-0.00048828125)">
   <path d="M 346,457 C 273,457 209,483 155,535 101,586 74,649 74,723 74,796 101,859 155,911 209,963 273,989 346,989 419,989 480,963 531,910 582,859 608,796 608,723 608,648 583,586 532,535 482,483 420,457 346,457 Z"/>
  </g>
  <g id="bullet-char-template-8211" transform="scale(0.00048828125,-0.00048828125)">
   <path d="M -4,459 L 1135,459 1135,606 -4,606 -4,459 Z"/>
  </g>
  <g id="bullet-char-template-61548" transform="scale(0.00048828125,-0.00048828125)">
   <path d="M 173,740 C 173,903 231,1043 346,1159 462,1274 601,1332 765,1332 928,1332 1067,1274 1183,1159 1299,1043 1357,903 1357,740 1357,577 1299,437 1183,322 1067,206 928,148 765,148 601,148 462,206 346,322 231,437 173,577 173,740 Z"/>
  </g>
 </defs>
 <g class="Page">
  <g class="com.sun.star.drawing.PolyPolygonShape">
   <g id="id3">
    <rect class="BoundingBox" stroke="none" fill="none" x="0" y="0" width="18001" height="18001"/>
    <path fill="rgb(114,159,207)" stroke="none" d="M 1,1 L 17999,1 17999,17999 1,17999 1,1 Z"/>
   </g>
  </g>
  <g class="com.sun.star.drawing.PolyPolygonShape">
   <g id="id4">
    <rect class="BoundingBox" stroke="none" fill="none" x="-14" y="-14" width="18029" height="18029"/>
    <path fill="none" stroke="rgb(52,101,164)" stroke-width="28" stroke-linejoin="round" d="M 1,1 L 17999,1 17999,17999 1,17999 1,1 Z"/>
   </g>
  </g>
  <g class="com.sun.star.drawing.PolyPolygonShape">
   <g id="id5">
    <rect class="BoundingBox" stroke="none" fill="none" x="11101" y="8399" width="2033" height="1544"/>
    <path fill="none" stroke="rgb(0,0,0)" stroke-width="529" stroke-linejoin="round" d="M 12868,9383 L 11515,8664 11366,9677 12868,9383 Z"/>
   </g>
  </g>
  <g class="com.sun.star.drawing.PolyPolygonShape">
   <g id="id6">
    <rect class="BoundingBox" stroke="none" fill="none" x="10477" y="6482" width="1995" height="1802"/>
    <path fill="none" stroke="rgb(0,0,0)" stroke-width="529" stroke-linejoin="round" d="M 12206,6747 L 10742,7195 11353,8018 12206,6747 Z"/>
   </g>
  </g>
  <g class="com.sun.star.drawing.PolyPolygonShape">
   <g id="id7">
    <rect class="BoundingBox" stroke="none" fill="none" x="8893" y="5086" width="1544" height="2032"/>
    <path fill="none" stroke="rgb(0,0,0)" stroke-width="529" stroke-linejoin="round" d="M 9876,5351 L 9158,6703 10171,6852 9876,5351 Z"/>
   </g>
  </g>
  <g class="com.sun.star.drawing.PolyPolygonShape">
   <g id="id8">
    <rect class="BoundingBox" stroke="none" fill="none" x="6975" y="5746" width="1803" height="1996"/>
    <path fill="none" stroke="rgb(0,0,0)" stroke-width="529" stroke-linejoin="round" d="M 7240,6011 L 7689,7476 8512,6865 7240,6011 Z"/>
   </g>
  </g>
  <g class="com.sun.star.drawing.PolyPolygonShape">
   <g id="id9">
    <rect class="BoundingBox" stroke="none" fill="none" x="7774" y="7174" width="3341" height="2029"/>
    <path fill="rgb(0,0,0)" stroke="none" d="M 11095,9201 L 11106,9112 11112,9021 11113,8933 11110,8844 11103,8754 11090,8665 11073,8576 11052,8489 11026,8402 10996,8318 10962,8234 10924,8153 10881,8073 10834,7996 10784,7921 10730,7850 10673,7780 10612,7714 10547,7651 10479,7591 10409,7536 10336,7483 10261,7434 10183,7389 10102,7348 10020,7311 9936,7279 9850,7251 9763,7227 9675,7207 9586,7193 9497,7182 9407,7177 9317,7175 9228,7179 9137,7187 9048,7198 8962,7215 8874,7237 8788,7263 8703,7293 8619,7327 8538,7365 8459,7409 8382,7455 8308,7505 8235,7559 8167,7618 8100,7678 8037,7742 7978,7810 7922,7881 7869,7955 7820,8030 7775,8108 8112,8290 8147,8228 8186,8169 8227,8112 8271,8057 8317,8003 8367,7952 8419,7904 8473,7859 8530,7816 8588,7778 8648,7741 8711,7708 8775,7677 8839,7650 8906,7627 8974,7606 9040,7590 9110,7577 9180,7566 9250,7561 9320,7558 9392,7559 9462,7563 9532,7572 9602,7583 9670,7598 9739,7617 9806,7639 9872,7665 9936,7693 9999,7726 10060,7761 10120,7799 10177,7840 10232,7885 10285,7931 10335,7981 10383,8032 10429,8086 10471,8143 10511,8202 10547,8262 10580,8325 10610,8388 10637,8454 10660,8521 10680,8588 10697,8657 10711,8726 10720,8796 10726,8867 10728,8937 10727,9005 10723,9076 10714,9146 11095,9201 Z"/>
   </g>
  </g>
  <g class="com.sun.star.drawing.OpenBezierShape">
   <g id="id10">
    <rect class="BoundingBox" stroke="none" fill="none" x="6619" y="8509" width="2984" height="1623"/>
    <path fill="none" stroke="rgb(0,0,0)" stroke-width="529" stroke-linejoin="round" stroke-linecap="round" d="M 6884,9866 C 6884,9850 6884,9834 6885,9819 6898,9624 6968,9436 7088,9273 7208,9111 7375,8981 7571,8893 7768,8805 7987,8765 8206,8776 8426,8787 8638,8848 8822,8955 9007,9062 9154,9208 9253,9381 9287,9441 9315,9504 9337,9569"/>
   </g>
  </g>
  <g class="com.sun.star.drawing.LineShape">
   <g id="id11">
    <rect class="BoundingBox" stroke="none" fill="none" x="5952" y="12058" width="1630" height="537"/>
    <path fill="none" stroke="rgb(0,0,0)" stroke-width="529" stroke-linejoin="round" stroke-linecap="round" d="M 7316,12323 L 6217,12329"/>
   </g>
  </g>
  <g class="com.sun.star.drawing.OpenBezierShape">
   <g id="id12">
    <rect class="BoundingBox" stroke="none" fill="none" x="5420" y="9592" width="1774" height="1421"/>
    <path fill="none" stroke="rgb(0,0,0)" stroke-width="529" stroke-linejoin="round" stroke-linecap="round" d="M 5685,10747 C 5705,10600 5756,10459 5835,10333 5930,10182 6062,10059 6218,9975 6373,9892 6547,9851 6722,9857 6792,9859 6861,9869 6928,9886"/>
   </g>
  </g>
  <g class="com.sun.star.drawing.OpenBezierShape">
   <g id="id13">
    <rect class="BoundingBox" stroke="none" fill="none" x="4947" y="10454" width="1555" height="2141"/>
    <path fill="none" stroke="rgb(0,0,0)" stroke-width="529" stroke-linejoin="round" stroke-linecap="round" d="M 6236,12329 C 6084,12313 5937,12275 5805,12217 5624,12139 5475,12026 5371,11890 5267,11754 5212,11600 5212,11443 5212,11285 5267,11131 5371,10995 5454,10887 5565,10793 5699,10719"/>
   </g>
  </g>
  <g class="com.sun.star.drawing.OpenBezierShape">
   <g id="id14">
    <rect class="BoundingBox" stroke="none" fill="none" x="9177" y="9429" width="2395" height="1486"/>
    <path fill="none" stroke="rgb(0,0,0)" stroke-width="529" stroke-linejoin="round" stroke-linecap="round" d="M 9442,10649 C 9442,10635 9443,10622 9444,10608 9453,10438 9506,10274 9597,10132 9689,9989 9815,9874 9965,9797 10114,9721 10280,9685 10446,9695 10613,9704 10774,9758 10914,9851 11054,9944 11167,10073 11242,10225 11268,10277 11290,10332 11306,10388"/>
   </g>
  </g>
  <g class="com.sun.star.drawing.OpenBezierShape">
   <g id="id15">
    <rect class="BoundingBox" stroke="none" fill="none" x="11022" y="10040" width="1689" height="1672"/>
    <path fill="none" stroke="rgb(0,0,0)" stroke-width="529" stroke-linejoin="round" stroke-linecap="round" d="M 11287,10423 C 11297,10417 11306,10412 11316,10406 11430,10340 11560,10305 11692,10305 11824,10305 11954,10340 12069,10406 12183,10472 12278,10568 12344,10682 12410,10797 12445,10927 12445,11060 12445,11192 12410,11322 12344,11437 12342,11440 12341,11443 12339,11446"/>
   </g>
  </g>
  <g class="com.sun.star.drawing.OpenBezierShape">
   <g id="id16">
    <rect class="BoundingBox" stroke="none" fill="none" x="11370" y="11141" width="1506" height="1923"/>
    <path fill="none" stroke="rgb(0,0,0)" stroke-width="529" stroke-linejoin="round" stroke-linecap="round" d="M 12340,11406 C 12392,11452 12438,11504 12477,11559 12564,11685 12610,11827 12610,11972 12610,12117 12564,12259 12477,12385 12389,12511 12264,12615 12113,12687 11967,12757 11803,12795 11635,12798"/>
   </g>
  </g>
  <g class="com.sun.star.drawing.LineShape">
   <g id="id17">
    <rect class="BoundingBox" stroke="none" fill="none" x="8673" y="12534" width="3275" height="531"/>
    <path fill="none" stroke="rgb(0,0,0)" stroke-width="529" stroke-linejoin="round" stroke-linecap="round" d="M 11682,12799 L 8938,12799"/>
   </g>
  </g>
  <g class="com.sun.star.drawing.OpenBezierShape">
   <g id="id18">
    <rect class="BoundingBox" stroke="none" fill="none" x="8268" y="10375" width="1473" height="1309"/>
    <path fill="none" stroke="rgb(0,0,0)" stroke-width="529" stroke-linejoin="round" stroke-linecap="round" d="M 8533,11418 C 8549,11290 8587,11166 8647,11057 8719,10925 8819,10817 8938,10744 9056,10671 9186,10635 9318,10640 9371,10643 9424,10651 9475,10666"/>
   </g>
  </g>
  <g class="com.sun.star.drawing.OpenBezierShape">
   <g id="id19">
    <rect class="BoundingBox" stroke="none" fill="none" x="7910" y="11129" width="1308" height="1936"/>
    <path fill="none" stroke="rgb(0,0,0)" stroke-width="529" stroke-linejoin="round" stroke-linecap="round" d="M 8952,12799 C 8837,12785 8725,12752 8625,12701 8488,12633 8374,12534 8295,12416 8217,12297 8175,12162 8175,12025 8175,11888 8217,11753 8295,11635 8358,11540 8443,11458 8545,11394"/>
   </g>
  </g>
  <g class="com.sun.star.drawing.PolyPolygonShape">
   <g id="id20">
    <rect class="BoundingBox" stroke="none" fill="none" x="5602" y="7847" width="2033" height="1544"/>
    <path fill="none" stroke="rgb(0,0,0)" stroke-width="529" stroke-linejoin="round" d="M 5867,8406 L 7220,9125 7369,8112 5867,8406 Z"/>
   </g>
  </g>
 </g>
</svg>